<svg width="32" height="32" viewBox="0 0 256 256" xmlns="http://www.w3.org/2000/svg">
  <rect width="256" height="256" rx="48" fill="#0a0a0a"/>
  <defs>
    <rect id="shard-S" x="-3" y="-20" width="6" height="45" rx="3"/>
    <g id="group-S">
      <use href="#shard-S" transform="rotate(0) translate(0,-30)"/>
      <use href="#shard-S" transform="rotate(60) translate(0,-30)"/>
      <use href="#shard-S" transform="rotate(120) translate(0,-30)"/>
      <use href="#shard-S" transform="rotate(180) translate(0,-30)"/>
      <use href="#shard-S" transform="rotate(240) translate(0,-30)"/>
      <use href="#shard-S" transform="rotate(300) translate(0,-30)"/>
    </g>
    <rect id="shard-M" x="-3" y="-25" width="6" height="55" rx="3"/>
    <g id="group-M">
      <use href="#shard-M" transform="rotate(0) translate(0,-30)"/>
      <use href="#shard-M" transform="rotate(60) translate(0,-30)"/>
      <use href="#shard-M" transform="rotate(120) translate(0,-30)"/>
      <use href="#shard-M" transform="rotate(180) translate(0,-30)"/>
      <use href="#shard-M" transform="rotate(240) translate(0,-30)"/>
      <use href="#shard-M" transform="rotate(300) translate(0,-30)"/>
    </g>
    <rect id="shard-L" x="-3" y="-30" width="6" height="60" rx="3"/>
    <g id="group-L">
      <use href="#shard-L" transform="rotate(0) translate(0,-30)"/>
      <use href="#shard-L" transform="rotate(60) translate(0,-30)"/>
      <use href="#shard-L" transform="rotate(120) translate(0,-30)"/>
      <use href="#shard-L" transform="rotate(180) translate(0,-30)"/>
      <use href="#shard-L" transform="rotate(240) translate(0,-30)"/>
      <use href="#shard-L" transform="rotate(300) translate(0,-30)"/>
    </g>
  </defs>
  <g transform="translate(128, 128) scale(1.3)">
    <g fill="#ffffff" opacity="0.4"><use href="#group-M"/></g>
    <g fill="#e5e5e5" opacity="0.3" transform="rotate(20)"><use href="#group-L"/></g>
    <g fill="#a3a3a3" opacity="0.25" transform="rotate(-20)"><use href="#group-S"/></g>
  </g>
</svg>
